# xmcd CD database file
#
# Track frame offsets:
#	150
#	14974
#	30992
#	45585
#	69463
#	83395
#	97723
#	110502
#	122361
#	136149
#	155368
#	172176
#	186564
#	199963
#	219593
#	242071
#	255503
#	270177
#	281686
#	297116
#
# Disc length: 4139 seconds
#
# Revision: 0
# Processed by: cddbd v1.5.1PL0 Copyright (c) Steve Scherf et al.
# Submitted via: CDex 1.51
#
DISCID=15102914
DTITLE=tuxedo big band - basie boogie
DYEAR=2005
DGENRE=Jazz
TTITLE0=blow top
TTITLE1=topsy
TTITLE2=avenue C
TTITLE3=robbins nest
TTITLE4=queer street
TTITLE5=me and the blues
TTITLE6=i never knew
TTITLE7=blame it on my last affair
TTITLE8=futile frustration
TTITLE9=blue and sentimental
TTITLE10=beaver junction
TTITLE11=jump the blues away
TTITLE12=meet me at no special place
TTITLE13=fiesta in blue
TTITLE14=on the up beat
TTITLE15=if i could be with you
TTITLE16=swinf brother swing
TTITLE17=basie boogie
TTITLE18=down for double
TTITLE19=south
EXTD=YEAR: 2005
EXTT0=
EXTT1=
EXTT2=
EXTT3=
EXTT4=
EXTT5=
EXTT6=
EXTT7=
EXTT8=
EXTT9=
EXTT10=
EXTT11=
EXTT12=
EXTT13=
EXTT14=
EXTT15=
EXTT16=
EXTT17=
EXTT18=
EXTT19=
PLAYORDER=
